<svg xmlns="http://www.w3.org/2000/svg" width="25.068" height="23.641" viewBox="0 0 25.068 23.641"><defs><style>.a{fill:#09c;}</style></defs><g transform="translate(0.004 -0.379)"><path class="a" d="M98.938,322.332a2.986,2.986,0,1,0,2.986,2.986A2.986,2.986,0,0,0,98.938,322.332Zm0,4.874a1.888,1.888,0,1,1,1.888-1.888A1.888,1.888,0,0,1,98.938,327.206Zm0,0" transform="translate(-90.69 -304.284)"/><path class="a" d="M24.521,5.519H5.142l-.4-2.212A3.3,3.3,0,0,0,2.074.64L.641.387A.549.549,0,1,0,.449,1.468l1.438.252A2.2,2.2,0,0,1,3.665,3.5l1.943,10.96a2.739,2.739,0,0,0,2.7,2.267H19.834a2.737,2.737,0,0,0,2.629-1.948l2.579-8.551a.574.574,0,0,0-.082-.488.556.556,0,0,0-.439-.22Zm-3.106,8.935a1.635,1.635,0,0,1-1.575,1.169H8.314a1.638,1.638,0,0,1-1.619-1.361L5.339,6.611H23.785Zm0,0" transform="translate(0)"/><path class="a" d="M308.938,322.332a2.986,2.986,0,1,0,2.986,2.986A2.986,2.986,0,0,0,308.938,322.332Zm0,4.874a1.888,1.888,0,1,1,1.888-1.888A1.888,1.888,0,0,1,308.938,327.206Zm0,0" transform="translate(-289.165 -304.284)"/></g></svg>